<?xml version="1.0" encoding="utf-8" ?>
<svg xmlns="http://www.w3.org/2000/svg" xmlns:xlink="http://www.w3.org/1999/xlink" width="1893" height="1893">
	<path fill="#5FB44C" transform="scale(3.69682 3.69682)" d="M304.961 440.152L155.005 440.164C144.217 440.166 133.385 440.711 122.779 438.37C92.9442 431.785 72.3073 405.462 72.1297 374.986L72.1154 154.373C72.1076 144.18 71.3079 131.943 73.2357 122.083C77.9645 97.8968 96.8069 78.8088 120.708 73.3923C131.83 70.872 145.531 71.83 156.98 71.8296L206.436 71.8287L363.174 71.8235C372.15 71.8218 381.405 71.2371 390.248 73.0299C418.675 78.7933 439.616 104.896 439.659 133.816L439.637 357.111C439.644 367.241 440.432 378.647 438.658 388.556C434.492 411.827 418.206 431.526 395.09 437.751C381.869 441.311 365.374 440.157 351.657 440.157L304.961 440.152ZM253.862 139.828C236.917 142.19 234.239 154.184 234.237 168.077L234.247 234.266L168.317 234.26C164.575 234.262 160.708 234.081 157.017 234.788C135.505 238.91 134.449 272.051 157.586 276.724C161.511 277.517 165.628 277.308 169.614 277.304L234.247 277.284L234.23 344.295C234.226 347.244 233.954 350.51 234.521 353.409C236.942 365.766 247.971 372.107 259.815 370.693C275.877 367.533 278.166 356.439 278.187 342.134L278.184 277.284C282.197 277.704 286.418 277.3 290.464 277.29L341.364 277.295C345.727 277.304 350.339 277.731 354.662 277.119C380.031 273.53 378.695 236.873 351.981 234.472C343.633 233.721 334.91 234.269 326.512 234.27L278.184 234.266L278.189 184.196C278.189 176.2 278.919 163.087 277.33 155.508C275.153 145.129 263.739 139.26 253.862 139.828Z"/>
</svg>
