<?xml version="1.0" encoding="utf-8" ?>
<svg xmlns="http://www.w3.org/2000/svg" xmlns:xlink="http://www.w3.org/1999/xlink" width="1893" height="1893">
	<path fill="#E84045" transform="scale(3.69682 3.69682)" d="M266.247 450.253C255.158 450.269 244.046 450.367 233.009 449.106C150.593 439.693 82.0225 376.985 65.4538 295.654C50.3015 221.277 79.4976 144.974 140 99.8452C173.336 74.9794 205.238 65.0192 246.324 61.2514C257.118 61.0927 268.01 61.1691 278.743 62.4096C368.033 72.7294 443.274 148.194 450.192 238.453C458.858 351.504 377.881 441.795 266.247 450.253ZM324.643 164.768C320.265 166.275 309.013 179.098 304.891 183.204L264.551 223.301C261.805 226.077 259.212 229.011 256.386 231.707C239.461 215.697 223.493 198.609 206.788 182.356C201.979 177.676 197.475 172.612 192.38 168.238C184.685 161.632 180.174 170.013 174.387 175.683C159.753 190.022 164.874 188.646 179.565 203.229L196.778 220.408C208.768 232.223 220.505 244.282 232.619 255.976C229.077 259.866 225.016 263.347 221.274 267.052L182.59 306.002C177.722 310.947 172.434 315.631 167.739 320.72C164.64 324.08 164.776 325.392 167.75 328.91C170.553 332.227 184.435 348.597 188.393 347.094C193.109 343.703 200.495 335.338 204.936 330.849L249.37 286.731C251.642 284.489 253.866 282.133 256.386 280.166C258.574 282.929 261.326 285.335 263.845 287.796L303.653 327.245C307.045 330.616 320.862 346.151 325.108 346.805C329.126 347.423 345.644 328.956 347.296 325.837C345.651 319.448 338.439 314.318 333.937 309.925C315.965 292.384 298.402 272.687 279.885 255.976L280.14 255.665C284.107 250.882 289.305 246.54 293.739 242.113L330.508 205.146C335.133 200.441 340.934 195.536 345.047 190.577C350.862 183.568 341.159 178.236 336.209 173.322C333.139 170.274 329.486 164.485 324.643 164.768Z"/>
</svg>
