<?xml version="1.0" encoding="utf-8" ?>
<svg xmlns="http://www.w3.org/2000/svg" xmlns:xlink="http://www.w3.org/1999/xlink" width="1893" height="1893">
	<path fill="#405FCD" transform="scale(3.69682 3.69682)" d="M323.705 106.117L323.979 105.904C326.69 103.776 329.085 101.034 331.502 98.5776L343.755 86.127C347.112 82.7329 350.472 79.1097 354.743 76.8553C370.722 68.4219 380.849 78.8863 390.792 88.9476L428.191 126.623C439.419 137.794 453.033 149.183 445.578 167.395C439.825 181.45 407.36 206.507 394.738 221.29C391.411 223.818 388.433 227.152 385.476 230.111L321.45 294.255C302.303 313.743 305.728 315.733 280.543 320.236L230.72 329.389C202.479 334.651 191.853 330.505 194.038 299.739L196.512 256.33C197.659 233.24 195.65 235.695 211.784 219.341L314.084 115.912C317.288 112.675 320.723 109.558 323.705 106.117ZM340.988 148.394C336.384 152.206 332.247 156.635 328.022 160.86L257.708 230.508C255.274 232.912 246.854 239.758 246.516 243.145C246.173 246.571 273.15 270.824 279.364 277.964C292.622 265.186 305.303 251.744 318.228 238.625L374.756 182.131C380.285 178.218 395.502 161.979 400.671 156.609C389.606 144.998 378.059 133.796 366.775 122.396C359.547 130.803 349.053 140.595 340.988 148.394Z"/>
	<path fill="#405FCD" transform="scale(3.69682 3.69682)" d="M394.738 312.987L394.753 390.597C394.756 403.99 394.167 414.107 384.378 424.5C371.113 438.582 351.651 436.252 334.117 436.245L110.868 436.254C106.185 436.254 101.434 436.396 96.7935 435.663C78.0297 432.698 64.3893 415.502 63.9842 396.879C63.8526 390.829 64.0082 384.74 64.0088 378.685L64.0135 149.853C64.0209 145.748 63.8625 141.338 64.5079 137.275C66.9329 122.01 80.206 109.784 95.0475 106.909C101.302 105.697 107.917 106.102 114.266 106.107L207.849 106.117C219.444 106.117 231.078 106.35 242.667 106.117C244.216 107.991 246.792 108.63 248.827 109.829C263.953 118.744 259.825 144.143 240.336 146.971C235.772 147.633 230.709 147.218 226.083 147.217L106.347 147.208L106.344 367.053C106.343 376.187 106.124 385.382 106.347 394.51C115.343 394.784 124.426 394.509 133.431 394.509L352.971 394.51L352.96 324.644C352.957 316.435 352.431 309.059 358.671 302.788C366.732 294.688 380.084 294.438 388.131 302.701C390.925 305.57 392.961 311.439 394.738 312.987Z"/>
	<path fill="#69A9F3" transform="scale(3.69682 3.69682)" d="M242.667 106.117L323.705 106.117C320.723 109.558 317.288 112.675 314.084 115.912L211.784 219.341C195.65 235.695 197.659 233.24 196.512 256.33L194.038 299.739C191.853 330.505 202.479 334.651 230.72 329.389L280.543 320.236C305.728 315.733 302.303 313.743 321.45 294.255L385.476 230.111C388.433 227.152 391.411 223.818 394.738 221.29C395.155 224.819 394.761 228.701 394.748 232.276L394.744 293.971C394.746 300.259 395.054 306.716 394.738 312.987C392.961 311.439 390.925 305.57 388.131 302.701C380.084 294.438 366.732 294.688 358.671 302.788C352.431 309.059 352.957 316.435 352.96 324.644L352.971 394.51L133.431 394.509C124.426 394.509 115.343 394.784 106.347 394.51C106.124 385.382 106.343 376.187 106.344 367.053L106.347 147.208L226.083 147.217C230.709 147.218 235.772 147.633 240.336 146.971C259.825 144.143 263.953 118.744 248.827 109.829C246.792 108.63 244.216 107.991 242.667 106.117Z"/>
	<path fill="#BFA3FB" transform="scale(3.69682 3.69682)" d="M340.988 148.394C349.053 140.595 359.547 130.803 366.775 122.396C378.059 133.796 389.606 144.998 400.671 156.609C395.502 161.979 380.285 178.218 374.756 182.131C362.992 171.406 352.312 159.57 340.988 148.394Z"/>
</svg>
