<?xml version="1.0" encoding="utf-8" ?>
<svg xmlns="http://www.w3.org/2000/svg" xmlns:xlink="http://www.w3.org/1999/xlink" width="1893" height="1893">
	<path fill="#1E1E1E" transform="scale(3.69682 3.69682)" d="M247.495 321.673L213.092 327.991C204.338 329.592 195.29 332.948 187.313 327.1C177.911 320.208 180.581 311.368 182.045 301.77L187.84 265.608C188.982 258.349 191.229 234.144 195.256 228.802C198.051 225.094 201.83 221.825 205.103 218.533L346.015 77.5931C355.52 68.0462 362.813 61.1785 376.923 59.249C395.262 58.0398 403.195 65.9439 414.759 78.0221L436.879 100.44C451.29 114.741 458.546 133.395 445.84 152.18C442.151 157.634 436.543 162.225 431.86 166.849L290.741 308.495C288.821 310.426 286.854 312.856 284.584 314.349C282.268 315.871 252.387 320.729 247.495 321.673ZM380.758 91.2076C375.878 96.4749 370.553 101.297 365.609 106.492C369.267 110.145 403.641 145.039 404.894 145.213C410.222 140.668 414.745 135.123 420.159 130.722C412.608 122.263 403.04 113.424 394.888 105.231C390.794 101.117 385.218 94.5102 380.758 91.2076ZM340.333 130.722C337.389 133.302 334.766 136.337 331.999 139.114L232.152 239.411C230.249 241.37 227.35 243.626 226.06 246.025C224.528 248.875 218.572 287.093 218.159 292.919C229.26 290.635 240.357 288.182 251.541 286.318C269.321 282.551 264.42 285.763 277.15 272.989L370.08 180.8C373.559 177.295 376.935 173.625 380.758 170.488C375.837 166.42 341.85 131.114 340.333 130.722Z"/>
	<path fill="#1E1E1E" transform="scale(3.69682 3.69682)" d="M374.431 287.18C374.219 281.389 373.922 276.756 378.128 272.21C384.487 265.337 395.279 265.25 401.993 271.628C409.944 279.181 407.492 294.27 407.502 304.558L407.524 380.478C407.523 389.367 407.932 398.568 405.938 407.286C400.15 432.594 376.755 451.287 350.753 451.357L138.446 451.274C128.669 451.276 117.816 452.068 108.226 450.251C74.7404 443.905 60.8199 417.458 60.752 386.284L60.7488 153.85C60.7418 143.771 59.9399 131.742 61.7243 121.96C66.4881 95.846 88.9136 77.0677 114.815 73.8418C119.854 73.2141 125.037 73.4213 130.106 73.4208L152.148 73.4355L221.406 73.4382C232.343 73.4382 243.319 73.2322 254.251 73.4063C272.826 73.7019 277.942 98.9971 259.978 105.402C254.54 107.341 238.84 106.488 232.152 106.488L130.52 106.487C110.36 106.487 94.455 109.891 94.1487 133.911C93.9131 152.381 94.2291 170.912 94.2297 189.389L94.2084 385.343C94.1441 407.034 102.696 417.98 125.243 418.032L328.464 418.034C345.658 418.038 369.231 421.022 373.749 397.741C374.773 392.462 374.443 386.845 374.441 381.486L374.431 287.18Z"/>
</svg>
