<?xml version="1.0" encoding="utf-8" ?>
<svg xmlns="http://www.w3.org/2000/svg" xmlns:xlink="http://www.w3.org/1999/xlink" width="1893" height="1893">
	<path fill="#45B1DE" transform="scale(3.69682 3.69682)" d="M81.672 192.88L81.6608 168.936C81.6559 143.099 85.2084 122.495 115.221 118.199L387.464 118.189C417.184 118.195 430.88 130.461 430.8 160.372L430.77 174.763C430.77 180.249 431.386 187.657 430.779 192.88L411.202 192.88L411.213 174.98C411.223 159.852 414.127 143.736 396.812 137.51C389.238 137.825 381.518 137.518 373.93 137.514L143.104 137.505C130.267 137.499 106.672 133.501 102.432 149.783C101.046 155.105 101.73 162.176 101.73 167.751L101.744 192.88L81.672 192.88Z"/>
	<path fill="#45B1DE" transform="scale(3.69682 3.69682)" d="M135.81 308.755C117.247 314.034 96.474 296.218 96.2548 277.561C96.1368 267.512 110.479 264.38 113.514 274.844C114.133 276.977 114.208 279.232 114.915 281.36C123.094 305.958 160.92 285.952 145.289 268.144C138.635 260.564 128.417 264.392 119.774 262.653C85.4176 255.739 90.5498 202.438 127.871 201.751C140.144 201.055 151.76 204.831 159.547 214.983C163.676 220.367 167.26 229.571 166.184 236.449C165.51 240.759 160.419 244.483 156.092 243.527C145.764 241.245 150.288 232.831 146.007 226.106C133.788 206.909 104.235 224.85 116.254 241.372C124.257 252.373 144.692 237.433 160.447 259.588C176.077 281.566 154.416 312.161 135.81 308.755Z"/>
	<path fill="#45B1DE" transform="scale(3.69682 3.69682)" d="M191.335 290.272C188.906 296.33 186.434 307.055 178.899 308.606C173.697 309.677 169.504 305.665 168.542 300.787C167.698 296.505 177.34 275.843 179.462 271.032L204.299 215.676C207.037 209.645 208.174 204.058 215.483 202.744C226.013 200.083 230.606 219.758 233.748 226.891L250.953 266.831C253.074 271.695 264.841 295.627 264.116 299.748C263.047 305.821 257.858 310.48 251.486 308.388C245.472 306.413 242.945 295.59 240.328 290.272L217.562 290.272L191.335 290.272ZM216.643 233.922C211.665 243.192 203.574 261.623 200.081 271.277L216.643 271.277C221.961 271.299 227.335 271.48 232.647 271.277C231.397 267.74 218.085 235.6 216.643 233.922Z"/>
	<path fill="#45B1DE" transform="scale(3.69682 3.69682)" d="M334.495 235.772C328.664 250.101 322.297 264.223 316.302 278.489L309.964 293.722C307.013 300.809 301.963 314.455 291.348 307.085C287.105 304.139 285.408 297.048 283.513 292.528L259.734 236.753C255.836 227.839 240.688 205.423 259.017 202.744C267.017 200.945 269.609 210.368 271.859 215.834C279.863 235.281 288.186 257.162 297.217 275.794C305.583 257.046 313.754 236.495 321.617 217.442C323.005 214.08 324.249 210.259 326.093 207.14C330.732 199.294 344.521 202.714 343.524 212.156C342.881 218.243 337.014 229.56 334.495 235.772Z"/>
	<path fill="#45B1DE" transform="scale(3.69682 3.69682)" d="M371.473 290.272C381.317 292.348 403.841 286.919 411.499 292.712C415.827 295.986 416.556 301.632 413.04 305.797C409.563 309.914 401.798 308.764 396.974 308.767L367.172 308.762C363.217 308.76 358.469 309.563 355.293 306.71C350.075 302.021 352.003 287.662 352.004 281.093L352.006 223.64C351.987 215.622 350.025 203.068 361.698 202.744L391.087 202.741C396.335 202.739 402.153 202.249 407.317 203.128C414.43 204.338 418.444 212.557 412.732 218.181C408.479 222.369 400.472 220.944 395.109 220.943L371.473 220.954C371.379 229.339 371.465 237.733 371.473 246.119L394.688 246.118C398.054 246.109 401.888 245.66 405.187 246.23C412.737 247.535 415.035 257.116 409.85 262.257C405.59 266.48 398.825 264.986 393.407 264.977L371.473 264.961L371.473 277.125L371.473 290.272Z"/>
	<path fill="#45B1DE" transform="scale(3.69682 3.69682)" d="M430.779 339.203C430.788 345.866 431.031 352.634 430.71 359.286C429.862 376.818 416.847 390.828 399.53 392.981C394.52 393.604 389.352 393.379 384.31 393.371L137.997 393.366C115.287 393.377 89.6482 394.308 82.6444 365.559C81.3177 360.113 81.6166 354.616 81.6555 349.064L81.6758 335.635C81.6739 329.91 81.3418 324.065 81.672 318.36C88.3498 318.506 95.0621 318.363 101.744 318.36C101.943 327.504 101.74 336.691 101.735 345.839C101.727 360.247 101.577 373.625 119.941 373.751L387.811 373.766C412.668 373.76 411.259 366.09 411.217 345.878L411.202 319.132C417.714 319.286 424.263 319.136 430.779 319.132L430.779 339.203Z"/>
</svg>
